<svg width="63" height="32" viewBox="0 0 63 32" fill="none" xmlns="http://www.w3.org/2000/svg">
<mask id="path-1-inside-1" fill="white">
<path d="M0 0.545483C-3.56592e-07 4.62442 0.803406 8.66342 2.36435 12.4319C3.92529 16.2003 6.2132 19.6244 9.09744 22.5087C11.9817 25.3929 15.4058 27.6808 19.1742 29.2418C22.9427 30.8027 26.9817 31.6061 31.0606 31.6061C35.1396 31.6061 39.1786 30.8027 42.947 29.2418C46.7155 27.6808 50.1396 25.3929 53.0238 22.5087C55.908 19.6244 58.1959 16.2003 59.7569 12.4319C61.3178 8.66342 62.1212 4.62442 62.1212 0.545485H31.0606L0 0.545483Z"/>
</mask>
<path d="M0 0.545483C-3.56592e-07 4.62442 0.803406 8.66342 2.36435 12.4319C3.92529 16.2003 6.2132 19.6244 9.09744 22.5087C11.9817 25.3929 15.4058 27.6808 19.1742 29.2418C22.9427 30.8027 26.9817 31.6061 31.0606 31.6061C35.1396 31.6061 39.1786 30.8027 42.947 29.2418C46.7155 27.6808 50.1396 25.3929 53.0238 22.5087C55.908 19.6244 58.1959 16.2003 59.7569 12.4319C61.3178 8.66342 62.1212 4.62442 62.1212 0.545485H31.0606L0 0.545483Z" fill="#C8D4D8" stroke="#444343" stroke-width="12" mask="url(#path-1-inside-1)"/>
</svg>
