<svg width="246" height="124" viewBox="0 0 246 124" fill="none" xmlns="http://www.w3.org/2000/svg">
<mask id="path-1-inside-1" fill="white">
<path d="M246 123.97C246 91.3481 233.041 60.0626 209.974 36.9956C186.907 13.9286 155.622 0.969729 123 0.969727C90.3784 0.969724 59.0929 13.9286 36.0259 36.9956C12.9589 60.0626 4.92573e-06 91.3481 0 123.97L123 123.97H246Z"/>
</mask>
<path d="M246 123.97C246 91.3481 233.041 60.0626 209.974 36.9956C186.907 13.9286 155.622 0.969729 123 0.969727C90.3784 0.969724 59.0929 13.9286 36.0259 36.9956C12.9589 60.0626 4.92573e-06 91.3481 0 123.97L123 123.97H246Z" fill="#D03131" stroke="#444343" stroke-width="12" mask="url(#path-1-inside-1)"/>
</svg>
