<svg width="22" height="32" viewBox="0 0 22 32" fill="none" xmlns="http://www.w3.org/2000/svg">
<mask id="path-1-inside-1" fill="white">
<path d="M0 0.484861C-1.26286e-07 4.55584 0.284523 8.58695 0.837325 12.348C1.39013 16.1091 2.20038 19.5266 3.22182 22.4052C4.24327 25.2838 5.4559 27.5672 6.79048 29.1251C8.12506 30.683 9.55546 31.4849 11 31.4849C12.4445 31.4849 13.8749 30.683 15.2095 29.1251C16.5441 27.5672 17.7567 25.2838 18.7782 22.4052C19.7996 19.5266 20.6099 16.1091 21.1627 12.348C21.7155 8.58696 22 4.55584 22 0.484863H11L0 0.484861Z"/>
</mask>
<path d="M0 0.484861C-1.26286e-07 4.55584 0.284523 8.58695 0.837325 12.348C1.39013 16.1091 2.20038 19.5266 3.22182 22.4052C4.24327 25.2838 5.4559 27.5672 6.79048 29.1251C8.12506 30.683 9.55546 31.4849 11 31.4849C12.4445 31.4849 13.8749 30.683 15.2095 29.1251C16.5441 27.5672 17.7567 25.2838 18.7782 22.4052C19.7996 19.5266 20.6099 16.1091 21.1627 12.348C21.7155 8.58696 22 4.55584 22 0.484863H11L0 0.484861Z" fill="#C8D4D8" stroke="#444343" stroke-width="12" mask="url(#path-1-inside-1)"/>
</svg>
