<svg width="246" height="123" viewBox="0 0 246 123" fill="none" xmlns="http://www.w3.org/2000/svg">
<mask id="path-1-inside-1" fill="white">
<path d="M246 -6.10352e-05C246 32.6216 233.041 63.9071 209.974 86.9741C186.907 110.041 155.622 123 123 123C90.3784 123 59.0929 110.041 36.0259 86.9741C12.9589 63.9071 4.92573e-06 32.6216 0 -4.57764e-05L123 -6.10352e-05H246Z"/>
</mask>
<path d="M246 -6.10352e-05C246 32.6216 233.041 63.9071 209.974 86.9741C186.907 110.041 155.622 123 123 123C90.3784 123 59.0929 110.041 36.0259 86.9741C12.9589 63.9071 4.92573e-06 32.6216 0 -4.57764e-05L123 -6.10352e-05H246Z" fill="white" stroke="#444343" stroke-width="12" mask="url(#path-1-inside-1)"/>
</svg>
